<svg xmlns="http://www.w3.org/2000/svg" version="1.1" xmlns:xlink="http://www.w3.org/1999/xlink" xmlns:svgjs="http://svgjs.dev/svgjs" width="2000" height="631" viewBox="0 0 2000 631"><g transform="matrix(1,0,0,1,13.217002184382864,12.571309069858387)"><svg viewBox="0 0 396 125" data-background-color="#ffffff" preserveAspectRatio="xMidYMid meet" height="631" width="2000" xmlns="http://www.w3.org/2000/svg" xmlns:xlink="http://www.w3.org/1999/xlink"><g id="tight-bounds" transform="matrix(1,0,0,1,0.24000000000003752,0.3714554262663512)"><svg viewBox="0 0 395.5199999999999 124.25708914746728" height="124.25708914746728" width="395.5199999999999"><g><svg viewBox="0 0 706.8368075552046 222.06079138627186" height="124.25708914746728" width="395.5199999999999"><g><rect width="7.827892452845645" height="186.18151618058138" x="264.92322505980536" y="17.939637602845238" fill="#07203a" opacity="1" stroke-width="0" stroke="transparent" fill-opacity="1" class="rect-yte-0" data-fill-palette-color="primary" rx="1%" id="yte-0" data-palette-color="#07203a"></rect></g><g><rect width="7.827892452845645" height="186.18151618058138" x="282.99705004255367" y="17.939637602845238" fill="#07203a" opacity="1" stroke-width="0" stroke="transparent" fill-opacity="1" class="rect-yte-1" data-fill-palette-color="primary" rx="1%" id="yte-1" data-palette-color="#07203a"></rect></g><g transform="matrix(1,0,0,1,311.31680755520466,18.40277570279693)"><svg viewBox="0 0 395.52 185.255239980678" height="185.255239980678" width="395.52"><g id="textblocktransform"><svg viewBox="0 0 395.52 185.255239980678" height="185.255239980678" width="395.52" id="textblock"><g><svg viewBox="0 0 395.52 185.255239980678" height="185.255239980678" width="395.52"><g transform="matrix(1,0,0,1,0,0)"><svg width="395.52" viewBox="86.80999999999999 -35 203.67903090460726 82.95" height="185.255239980678" data-palette-color="#07203a"><svg></svg><svg></svg><g class="wordmark-text-0" data-fill-palette-color="primary" id="text-0"><path transform="translate(82.21,0)" d="M4.6 0v-35h25v5.05h-19.1v9.85h17.1v5h-17.1v10.05h19.7v5.05zM42.9-13.6l-8.75-12.95h6.6l5.95 9.3 6.05-9.3h6.3l-8.55 12.95 9.15 13.6h-6.6l-6.35-9.95-6.8 9.95h-6.4zM80.05-26.75v0c2.533 0 4.75 0.567 6.65 1.7 1.9 1.133 3.383 2.717 4.45 4.75 1.067 2.033 1.6 4.4 1.6 7.1v0c0 2.633-0.523 4.957-1.57 6.97-1.053 2.02-2.52 3.597-4.4 4.73-1.887 1.133-4.097 1.7-6.63 1.7v0c-2.433 0-4.507-0.533-6.22-1.6-1.72-1.067-3.03-2.61-3.93-4.63-0.9-2.013-1.35-4.403-1.35-7.17v0c0-2.867 0.45-5.31 1.35-7.33 0.9-2.013 2.21-3.553 3.93-4.62 1.713-1.067 3.753-1.6 6.12-1.6zM78.85-22.2v0c-1.567 0-2.967 0.383-4.2 1.15-1.233 0.767-2.19 1.807-2.87 3.12-0.687 1.32-1.03 2.847-1.03 4.58v0c0 1.733 0.343 3.277 1.03 4.63 0.68 1.347 1.637 2.393 2.87 3.14 1.233 0.753 2.633 1.13 4.2 1.13v0c1.6 0 3.01-0.383 4.23-1.15 1.213-0.767 2.163-1.817 2.85-3.15 0.68-1.333 1.02-2.867 1.02-4.6v0c0-1.7-0.34-3.217-1.02-4.55-0.687-1.333-1.637-2.383-2.85-3.15-1.22-0.767-2.63-1.15-4.23-1.15zM65 9.7v-36.25h5.75v36.25zM100.9-15.2h16.25c-0.067-1.5-0.407-2.777-1.02-3.83-0.62-1.047-1.48-1.863-2.58-2.45-1.1-0.58-2.367-0.87-3.8-0.87v0c-1.6 0-2.99 0.367-4.17 1.1-1.187 0.733-2.113 1.757-2.78 3.07-0.667 1.32-1 2.863-1 4.63v0c0 1.9 0.36 3.55 1.08 4.95 0.713 1.4 1.713 2.483 3 3.25 1.28 0.767 2.753 1.15 4.42 1.15v0c2.967 0 5.467-1.05 7.5-3.15v0l3.05 3.05c-1.3 1.433-2.883 2.54-4.75 3.32-1.867 0.787-3.95 1.18-6.25 1.18v0c-2.733 0-5.117-0.567-7.15-1.7-2.033-1.133-3.617-2.71-4.75-4.73-1.133-2.013-1.7-4.353-1.7-7.02v0c0-2.667 0.567-5.01 1.7-7.03 1.133-2.013 2.717-3.587 4.75-4.72 2.033-1.133 4.367-1.717 7-1.75v0c3.133 0 5.65 0.64 7.55 1.92 1.9 1.287 3.25 3.097 4.05 5.43 0.8 2.333 1.083 5.1 0.85 8.3v0h-21.25zM147.85 0v-15c0-2.067-0.567-3.693-1.7-4.88-1.133-1.18-2.7-1.77-4.7-1.77v0c-2.367 0.033-4.223 0.867-5.57 2.5-1.353 1.633-2.03 3.667-2.03 6.1v0h-1.6c0-3.3 0.467-5.95 1.4-7.95 0.933-2 2.26-3.46 3.98-4.38 1.713-0.913 3.737-1.37 6.07-1.37v0c2.067 0 3.843 0.417 5.33 1.25 1.48 0.833 2.613 2.007 3.4 3.52 0.78 1.52 1.17 3.347 1.17 5.48v0 16.5zM128.15 0v-26.55h5.75v26.55zM178.55-24.15l-2.1 4.05c-1.167-0.7-2.44-1.26-3.82-1.68-1.387-0.413-2.663-0.62-3.83-0.62v0c-1.133 0-2.067 0.217-2.8 0.65-0.733 0.433-1.1 1.15-1.1 2.15v0c0 0.833 0.343 1.49 1.03 1.97 0.68 0.487 1.553 0.897 2.62 1.23 1.067 0.333 2.2 0.683 3.4 1.05 1.2 0.367 2.343 0.84 3.43 1.42 1.08 0.587 1.953 1.38 2.62 2.38 0.667 1 1 2.317 1 3.95v0c0 1.8-0.473 3.273-1.42 4.42-0.953 1.153-2.203 2.003-3.75 2.55-1.553 0.553-3.23 0.83-5.03 0.83v0c-1.933 0-3.867-0.317-5.8-0.95-1.933-0.633-3.567-1.55-4.9-2.75v0l2.05-3.9c1.167 1.033 2.583 1.84 4.25 2.42 1.667 0.587 3.217 0.88 4.65 0.88v0c0.833 0 1.577-0.107 2.23-0.32 0.647-0.22 1.163-0.547 1.55-0.98 0.38-0.433 0.57-1 0.57-1.7v0c0-0.933-0.333-1.667-1-2.2-0.667-0.533-1.533-0.977-2.6-1.33-1.067-0.347-2.2-0.697-3.4-1.05-1.2-0.347-2.323-0.803-3.37-1.37-1.053-0.567-1.913-1.333-2.58-2.3-0.667-0.967-1-2.25-1-3.85v0c0-1.8 0.467-3.26 1.4-4.38 0.933-1.113 2.143-1.93 3.63-2.45 1.48-0.513 3.07-0.77 4.77-0.77v0c1.667 0 3.333 0.233 5 0.7 1.667 0.467 3.1 1.117 4.3 1.95zM186.95-15.2h16.25c-0.067-1.5-0.407-2.777-1.02-3.83-0.62-1.047-1.48-1.863-2.58-2.45-1.1-0.58-2.367-0.87-3.8-0.87v0c-1.6 0-2.99 0.367-4.17 1.1-1.187 0.733-2.113 1.757-2.78 3.07-0.667 1.32-1 2.863-1 4.63v0c0 1.9 0.36 3.55 1.08 4.95 0.713 1.4 1.713 2.483 3 3.25 1.28 0.767 2.753 1.15 4.42 1.15v0c2.967 0 5.467-1.05 7.5-3.15v0l3.05 3.05c-1.3 1.433-2.883 2.54-4.75 3.32-1.867 0.787-3.95 1.18-6.25 1.18v0c-2.733 0-5.117-0.567-7.15-1.7-2.033-1.133-3.617-2.71-4.75-4.73-1.133-2.013-1.7-4.353-1.7-7.02v0c0-2.667 0.567-5.01 1.7-7.03 1.133-2.013 2.717-3.587 4.75-4.72 2.033-1.133 4.367-1.717 7-1.75v0c3.133 0 5.65 0.64 7.55 1.92 1.9 1.287 3.25 3.097 4.05 5.43 0.8 2.333 1.083 5.1 0.85 8.3v0h-21.25z" fill="#07203a" fill-rule="nonzero" stroke="none" stroke-width="1" stroke-linecap="butt" stroke-linejoin="miter" stroke-miterlimit="10" stroke-dasharray="" stroke-dashoffset="0" font-family="none" font-weight="none" font-size="none" text-anchor="none" style="mix-blend-mode: normal" data-fill-palette-color="primary" opacity="1"></path><path transform="translate(92.03,47.7)" d="M0.45-29.95v-5.05h28.05v5.05h-11.1v29.95h-5.9v-29.95zM48.15-26.75v5.2c-1.9-0.1-3.54 0.223-4.92 0.97-1.387 0.753-2.453 1.797-3.2 3.13-0.753 1.333-1.13 2.867-1.13 4.6v0l-1.6-0.2c0-2.967 0.433-5.467 1.3-7.5 0.867-2.033 2.117-3.577 3.75-4.63 1.633-1.047 3.567-1.57 5.8-1.57zM33.2 0v-26.55h5.75v26.55zM69.55-11.85h-7.95c-1.867 0-3.25 0.283-4.15 0.85-0.9 0.567-1.35 1.5-1.35 2.8v0c0 1.233 0.46 2.217 1.38 2.95 0.913 0.733 2.17 1.1 3.77 1.1v0c1.433 0 2.717-0.25 3.85-0.75 1.133-0.5 2.033-1.177 2.7-2.03 0.667-0.847 1.017-1.803 1.05-2.87v0l1.1 4.85c-0.833 1.733-2.1 3.033-3.8 3.9-1.7 0.867-3.733 1.3-6.1 1.3v0c-1.9 0-3.55-0.367-4.95-1.1-1.4-0.733-2.483-1.727-3.25-2.98-0.767-1.247-1.15-2.637-1.15-4.17v0c0-2.4 0.877-4.317 2.63-5.75 1.747-1.433 4.22-2.167 7.42-2.2v0h8.8zM68.85 0l-0.05-16.85c0-1.733-0.533-3.083-1.6-4.05-1.067-0.967-2.65-1.45-4.75-1.45v0c-1.267 0-2.557 0.233-3.87 0.7-1.32 0.467-2.647 1.15-3.98 2.05v0l-2.35-3.7c1.233-0.767 2.4-1.4 3.5-1.9 1.1-0.5 2.277-0.883 3.53-1.15 1.247-0.267 2.72-0.4 4.42-0.4v0c3.433 0 6.077 0.823 7.93 2.47 1.847 1.653 2.787 3.93 2.82 6.83v0l0.05 17.45zM104.1-22.65l-3.15 3.7c-0.933-0.967-2.033-1.717-3.3-2.25-1.267-0.533-2.7-0.8-4.3-0.8v0c-1.533 0-2.9 0.367-4.1 1.1-1.2 0.733-2.133 1.76-2.8 3.08-0.667 1.313-1 2.837-1 4.57v0c0 1.733 0.333 3.257 1 4.57 0.667 1.32 1.6 2.353 2.8 3.1 1.2 0.753 2.567 1.13 4.1 1.13v0c1.667 0 3.167-0.277 4.5-0.83 1.333-0.547 2.45-1.353 3.35-2.42v0l3.2 3.15c-1.2 1.5-2.757 2.667-4.67 3.5-1.92 0.833-4.13 1.25-6.63 1.25v0c-2.633 0-4.957-0.567-6.97-1.7-2.02-1.133-3.597-2.71-4.73-4.73-1.133-2.013-1.7-4.353-1.7-7.02v0c0-2.667 0.567-5.01 1.7-7.03 1.133-2.013 2.71-3.597 4.73-4.75 2.013-1.147 4.337-1.72 6.97-1.72v0c2.4 0 4.527 0.357 6.38 1.07 1.847 0.72 3.387 1.73 4.62 3.03zM110.65 0v-37.1h5.75v37.1zM115.95-13.9l12.2-12.65h6.6l-18.8 19.5zM120.1-13.65l4.25-3.45 11.15 17.1h-6.8zM142.3-15.2h16.25c-0.067-1.5-0.407-2.777-1.02-3.83-0.62-1.047-1.48-1.863-2.58-2.45-1.1-0.58-2.367-0.87-3.8-0.87v0c-1.6 0-2.993 0.367-4.18 1.1-1.18 0.733-2.103 1.757-2.77 3.07-0.667 1.32-1 2.863-1 4.63v0c0 1.9 0.36 3.55 1.08 4.95 0.713 1.4 1.713 2.483 3 3.25 1.28 0.767 2.753 1.15 4.42 1.15v0c2.967 0 5.467-1.05 7.5-3.15v0l3.05 3.05c-1.3 1.433-2.883 2.54-4.75 3.32-1.867 0.787-3.95 1.18-6.25 1.18v0c-2.733 0-5.117-0.567-7.15-1.7-2.033-1.133-3.617-2.71-4.75-4.73-1.133-2.013-1.7-4.353-1.7-7.02v0c0-2.667 0.567-5.01 1.7-7.03 1.133-2.013 2.717-3.587 4.75-4.72 2.033-1.133 4.367-1.717 7-1.75v0c3.133 0 5.65 0.64 7.55 1.92 1.9 1.287 3.25 3.097 4.05 5.43 0.8 2.333 1.083 5.1 0.85 8.3v0h-21.25zM184.5-26.75v5.2c-1.9-0.1-3.54 0.223-4.92 0.97-1.387 0.753-2.453 1.797-3.2 3.13-0.753 1.333-1.13 2.867-1.13 4.6v0l-1.6-0.2c0-2.967 0.433-5.467 1.3-7.5 0.867-2.033 2.117-3.577 3.75-4.63 1.633-1.047 3.567-1.57 5.8-1.57zM169.55 0v-26.55h5.75v26.55z" fill="#07203a" fill-rule="nonzero" stroke="none" stroke-width="1" stroke-linecap="butt" stroke-linejoin="miter" stroke-miterlimit="10" stroke-dasharray="" stroke-dashoffset="0" font-family="none" font-weight="none" font-size="none" text-anchor="none" style="mix-blend-mode: normal" data-fill-palette-color="primary" opacity="1"></path></g></svg></g></svg></g></svg></g></svg></g><g><svg viewBox="0 0 244.43135999999998 222.06079138627186" height="222.06079138627186" width="244.43135999999998"><g><svg xmlns="http://www.w3.org/2000/svg" data-name="Layer 1" viewBox="12.9 16.2 74.3 67.5" x="0" y="0" height="222.06079138627186" width="244.43135999999998" class="icon-icon-0" data-fill-palette-color="accent" id="icon-0"><g data-name="Group" fill="#07203a" data-fill-palette-color="accent"><path data-name="Compound Path" d="M20.4 16.2A7.5 7.5 0 0 0 12.9 23.7V76.2A7.5 7.5 0 0 0 20.4 83.7H87.2V29.3H70.3V16.3ZM20.4 18.2H68.3V29.2H20.4A5.5 5.5 0 0 1 20.4 18.2M85.2 81.8H20.4A5.5 5.5 0 0 1 14.9 76.3V28.9H15L15.3 29.2 15.6 29.4 15.9 29.7 16.2 29.9 16.5 30.1 16.8 30.3 17.2 30.5H17.5L17.9 30.7H85.2Z" fill="#07203a" data-fill-palette-color="accent"></path><path data-name="Compound Path" d="M70 60.8A5 5 0 1 0 65 55.8 5 5 0 0 0 70 60.8M70 52.8A3 3 0 1 1 67 55.8 3 3 0 0 1 70 52.8" fill="#07203a" data-fill-palette-color="accent"></path></g></svg></g></svg></g></svg></g><defs></defs></svg><rect width="395.5199999999999" height="124.25708914746728" fill="none" stroke="none" visibility="hidden"></rect></g></svg></g></svg>